<?xml version="1.0"?>
<svg width="100" height="100" xmlns="http://www.w3.org/2000/svg" xmlns:svg="http://www.w3.org/2000/svg" enable-background="new 0 0 100 100" version="1.1" xml:space="preserve">
 <g class="layer">
  <title>Layer 1</title>
  <g id="svg_1">
   <g id="svg_2">
    <g id="svg_3">
     <path d="m50,62.02c-10.18,0 -19.78,-0.97 -27.04,-2.73c-8.88,-2.15 -13.2,-5.19 -13.2,-9.29s4.32,-7.14 13.2,-9.3c7.26,-1.76 16.86,-2.72 27.04,-2.72s19.78,0.96 27.04,2.72c8.88,2.16 13.2,5.2 13.2,9.3s-4.32,7.14 -13.2,9.29c-7.26,1.76 -16.86,2.73 -27.04,2.73zm-34.11,-12.02c1.71,1.96 12.86,6.02 34.11,6.02s32.4,-4.06 34.11,-6.02c-1.71,-1.96 -12.86,-6.02 -34.11,-6.02s-32.4,4.06 -34.11,6.02z" id="svg_4"/>
    </g>
    <g id="svg_5">
     <path d="m50.02,89.18c-1.63,0 -40.02,-0.14 -40.02,-11.88l0,-25.48c0,-1.66 1.34,-3 3,-3s3,1.34 3,3l0,25.28c0.48,0.65 3.02,2.39 10.15,3.91c6.6,1.4 15.08,2.17 23.87,2.17c8.8,0 17.27,-0.77 23.85,-2.17c7.13,-1.52 9.65,-3.26 10.13,-3.91l0,-25.28c0,-1.66 1.34,-3 3,-3s3,1.34 3,3l0,25.48c0,11.74 -38.34,11.88 -39.98,11.88z" id="svg_6"/>
    </g>
    <g id="svg_7">
     <path d="m50.02,66.25c-9.94,0 -19.33,-0.95 -26.45,-2.66c-8.75,-2.11 -13.01,-5.1 -13.01,-9.14c0,-1.66 1.34,-3 3,-3c1.59,0 2.89,1.23 2.99,2.8c1.42,2.19 13.55,6 33.47,6c19.9,0 32.02,-3.8 33.42,-6c0.11,-1.56 1.41,-2.8 3,-2.8c1.65,0 3,1.34 3,3c0,4.04 -4.25,7.03 -12.99,9.14c-7.1,1.71 -16.49,2.66 -26.43,2.66z" id="svg_8"/>
    </g>
    <g id="svg_9">
     <path d="m50.02,83.82c-14.68,0 -39.52,-2.41 -39.52,-11.44c0,-1.38 1.12,-2.5 2.5,-2.5c1.37,0 2.48,1.1 2.5,2.46c0.69,1.86 11.86,6.48 34.52,6.48c22.74,0 33.88,-4.66 34.49,-6.51c0,-1.38 1.11,-2.46 2.49,-2.46s2.5,1.15 2.5,2.53c0,9.03 -24.81,11.44 -39.48,11.44z" id="svg_10"/>
    </g>
   </g>
   <g id="svg_11">
    <g id="svg_12">
     <g id="svg_13">
      <g id="svg_14">
       <path d="m76.16,51.84c-0.42,0 -0.85,-0.14 -1.22,-0.39c-0.48,-0.33 -0.81,-0.81 -0.91,-1.32c-0.07,-0.41 0,-0.81 0.22,-1.13c0.28,-0.41 0.76,-0.64 1.31,-0.64c0.41,0 0.85,0.14 1.22,0.39c0.88,0.6 1.19,1.7 0.69,2.44c-0.28,0.41 -0.76,0.65 -1.31,0.65z" id="svg_15"/>
      </g>
      <g id="svg_16">
       <path d="m75.56,48.86c0.3,0 0.64,0.1 0.94,0.3c0.66,0.45 0.91,1.23 0.55,1.75c-0.19,0.28 -0.52,0.43 -0.89,0.43c-0.3,0 -0.64,-0.1 -0.94,-0.31c-0.66,-0.45 -0.91,-1.23 -0.56,-1.75c0.2,-0.28 0.53,-0.42 0.9,-0.42m0,-1c-0.72,0 -1.35,0.31 -1.72,0.86c-0.3,0.43 -0.4,0.97 -0.3,1.5c0.13,0.65 0.53,1.24 1.12,1.64c0.45,0.31 0.98,0.48 1.5,0.48c0.72,0 1.35,-0.32 1.72,-0.87c0.66,-0.97 0.29,-2.38 -0.82,-3.14c-0.45,-0.3 -0.99,-0.47 -1.5,-0.47l0,0z" id="svg_17"/>
      </g>
     </g>
     <g id="svg_18">
      <g id="svg_19">
       <path d="m76.71,51.3c-2.7,0 -40.37,-25.62 -56.44,-36.63l-0.32,-0.22c-0.78,-0.53 -0.93,-1.69 -0.32,-2.57c0.38,-0.57 1,-0.92 1.62,-0.92c0.32,0 0.63,0.09 0.88,0.27l0.24,0.16c20.35,13.71 54.54,37.03 54.96,39.2l0.04,0.2l-0.13,0.25c-0.07,0.09 -0.22,0.26 -0.53,0.26z" id="svg_20"/>
      </g>
      <g id="svg_21">
       <path d="m21.25,11.46c0.21,0 0.42,0.06 0.6,0.18c0.56,0.38 55.98,37.65 54.98,39.12c-0.02,0.02 -0.06,0.04 -0.12,0.04c-2.96,0 -55.94,-36.4 -56.48,-36.77c-0.55,-0.37 -0.64,-1.21 -0.19,-1.87c0.3,-0.45 0.77,-0.7 1.21,-0.7m0,-1l0,0c-0.79,0 -1.56,0.42 -2.04,1.13c-0.76,1.12 -0.55,2.58 0.45,3.27l0.33,0.22c4.68,3.21 16.85,11.53 28.7,19.43c25.93,17.29 27.34,17.29 28.02,17.29c0.39,0 0.74,-0.18 0.94,-0.48c0.17,-0.24 0.23,-0.54 0.17,-0.83c-0.14,-0.73 -0.35,-1.84 -26.48,-19.94c-11.87,-8.22 -24.02,-16.43 -28.69,-19.58l-0.24,-0.16c-0.34,-0.23 -0.74,-0.35 -1.16,-0.35l0,0z" id="svg_22"/>
      </g>
     </g>
    </g>
    <g id="svg_23">
     <g id="svg_24">
      <g id="svg_25">
       <path d="m23.84,51.84c-0.55,0 -1.03,-0.24 -1.31,-0.65c-0.5,-0.74 -0.19,-1.84 0.69,-2.44c0.37,-0.26 0.81,-0.39 1.22,-0.39c0.55,0 1.03,0.23 1.31,0.64c0.22,0.32 0.29,0.72 0.22,1.13c-0.1,0.51 -0.43,0.99 -0.91,1.32c-0.37,0.25 -0.8,0.39 -1.22,0.39l0,0z" id="svg_26"/>
      </g>
      <g id="svg_27">
       <path d="m24.44,48.86c0.37,0 0.7,0.14 0.9,0.42c0.35,0.52 0.1,1.31 -0.56,1.75c-0.3,0.21 -0.64,0.31 -0.94,0.31c-0.37,0 -0.7,-0.15 -0.9,-0.43c-0.35,-0.52 -0.1,-1.3 0.56,-1.75c0.3,-0.2 0.64,-0.3 0.94,-0.3m0,-1c-0.51,0 -1.05,0.16 -1.5,0.47c-1.11,0.76 -1.48,2.17 -0.82,3.14c0.37,0.55 1,0.87 1.72,0.87c0.51,0 1.05,-0.17 1.5,-0.48c0.59,-0.4 0.99,-0.99 1.12,-1.64c0.1,-0.53 0,-1.07 -0.3,-1.5c-0.37,-0.55 -1,-0.86 -1.72,-0.86l0,0z" id="svg_28"/>
      </g>
     </g>
     <g id="svg_29">
      <g id="svg_30">
       <path d="m23.29,51.3c-0.31,0 -0.47,-0.17 -0.53,-0.26l-0.12,-0.17l0.03,-0.28c0.42,-2.17 34.61,-25.49 54.96,-39.2l0.24,-0.16c0.25,-0.18 0.56,-0.27 0.88,-0.27c0.62,0 1.24,0.35 1.63,0.91c0.6,0.89 0.45,2.05 -0.33,2.58l-0.32,0.22c-16.07,11.01 -53.74,36.63 -56.44,36.63l0,0z" id="svg_31"/>
      </g>
      <g id="svg_32">
       <path d="m78.75,11.46c0.44,0 0.91,0.25 1.21,0.7c0.45,0.66 0.37,1.5 -0.19,1.87c-0.54,0.37 -53.52,36.77 -56.48,36.77c-0.06,0 -0.1,-0.02 -0.12,-0.04c-1,-1.47 54.42,-38.74 54.98,-39.12c0.18,-0.12 0.39,-0.18 0.6,-0.18m0,-1c-0.42,0 -0.83,0.12 -1.17,0.36l-0.23,0.15c-4.67,3.15 -16.82,11.36 -28.69,19.58c-26.13,18.1 -26.34,19.21 -26.48,19.94c-0.06,0.29 0,0.59 0.17,0.83c0.2,0.3 0.55,0.48 0.94,0.48c0.68,0 2.09,0 28.02,-17.29c11.85,-7.9 24.02,-16.22 28.7,-19.43l0.32,-0.22c1.01,-0.69 1.22,-2.15 0.46,-3.27c-0.48,-0.71 -1.25,-1.13 -2.04,-1.13l0,0z" id="svg_33"/>
      </g>
     </g>
    </g>
   </g>
  </g>
 </g>
</svg>